<?xml version="1.0" encoding="UTF-8" standalone="no"?>
<svg
   width="120mm"
   height="90mm"
   viewBox="0 0 120 90"
   version="1.1"
   id="svg1"
   sodipodi:docname="figure-1.svg"
   inkscape:version="1.4.4 (dcaf3e7, 2026-05-05)"
   xmlns:inkscape="http://www.inkscape.org/namespaces/inkscape"
   xmlns:sodipodi="http://sodipodi.sourceforge.net/DTD/sodipodi-0.dtd"
   xmlns="http://www.w3.org/2000/svg"
   xmlns:svg="http://www.w3.org/2000/svg">
  <sodipodi:namedview
     pagecolor="#ffffff"
     bordercolor="#000000"
     borderopacity="0.25"
     inkscape:showpageshadow="2"
     inkscape:pageopacity="0.0"
     inkscape:pagecheckerboard="0"
     inkscape:deskcolor="#d1d1d1"
     inkscape:document-units="mm"
     inkscape:zoom="2.1514225"
     inkscape:cx="164.7747"
     inkscape:cy="195.68448"
     inkscape:window-width="1440"
     inkscape:window-height="900"
     inkscape:window-maximized="1"
     id="namedview1"
     inkscape:current-layer="svg1" />
  <defs
     id="defs1">
    <rect
       x="72.577298"
       y="39.780862"
       width="65.592872"
       height="21.864291"
       id="rect2" />
  </defs>
  <rect
     style="fill:#0c0c0c;fill-opacity:0;stroke:#000000;stroke-width:1.43759048;stroke-linecap:round;stroke-linejoin:bevel;stroke-opacity:1;stroke-dasharray:none"
     id="rect1"
     width="68.625"
     height="53.25"
     x="24.5"
     y="17.874998" />
  <path
     style="fill:#0c0c0c;fill-opacity:0;stroke:#000000;stroke-width:1.38606293;stroke-linecap:round;stroke-linejoin:bevel;stroke-opacity:1;stroke-dasharray:none"
     d="m 38.374999,18.125 0.125,52.874997"
     id="path1" />
  <path
     style="fill:#0c0c0c;fill-opacity:0;stroke:#000000;stroke-width:1.37914647;stroke-linecap:round;stroke-linejoin:bevel;stroke-opacity:1;stroke-dasharray:none"
     d="M 51.5,70.999997 51.624999,17.874999"
     id="path2" />
  <path
     style="fill:#0c0c0c;fill-opacity:0;stroke:#000000;stroke-width:1.37220923;stroke-linecap:round;stroke-linejoin:bevel;stroke-opacity:1;stroke-dasharray:none"
     d="m 64.830376,18.760852 0.04965,51.994176"
     id="path3"
     sodipodi:nodetypes="cc" />
  <path
     style="fill:#0c0c0c;fill-opacity:0;stroke:#000000;stroke-width:1.38606293;stroke-linecap:round;stroke-linejoin:bevel;stroke-opacity:1;stroke-dasharray:none"
     d="m 79.749998,17.880655 -0.125,53.119342"
     id="path4"
     sodipodi:nodetypes="cc" />
  <path
     style="fill:#0c0c0c;fill-opacity:0;stroke:#000000;stroke-width:1.38194627;stroke-linecap:round;stroke-linejoin:bevel;stroke-opacity:1;stroke-dasharray:none"
     d="m 24.956726,31.269135 67.805203,-0.03988"
     id="path5"
     sodipodi:nodetypes="cc" />
  <path
     style="fill:#0c0c0c;fill-opacity:0;stroke:#000000;stroke-width:1.37170613;stroke-linecap:round;stroke-linejoin:bevel;stroke-opacity:1;stroke-dasharray:none"
     d="m 24.93926,44.264273 67.893489,0.03309"
     id="path6"
     sodipodi:nodetypes="cc" />
  <path
     style="fill:#0c0c0c;fill-opacity:0;stroke:#000000;stroke-width:1.38606293;stroke-linecap:round;stroke-linejoin:bevel;stroke-opacity:1;stroke-dasharray:none"
     d="m 24.544653,57.160996 68.494343,0.147626"
     id="path7"
     sodipodi:nodetypes="cc" />
  <g
     inkscape:label=""
     transform="translate(31.268124,25.300909)"
     id="g39">
    <g
       transform="matrix(0.352778,0,0,0.352778,-104.571,-3.52425)"
       id="g38">
      <g
         class="typst-text"
         transform="matrix(1,0,0,-1,290.138,19.98)"
         id="g37">
        <g
           id="g36">
          <path
             d="M 0,0 M 8.07,19.98 C 6.84,18.72 5.0400003,18.090001 2.6700004,18.090001 V 16.92 c 1.5600002,0 2.8500001,0.24 3.84,0.72 V 2.4600008 c 0,-0.5400001 -0.1199999,-0.9000001 -0.3899999,-1.0500001 -0.2699999,-0.15 -1.02,-0.24 -2.22,-0.24 h -1.05 V 6.9e-7 c 0.75,0.06 2.37,0.09 4.86,0.09 2.4899995,0 4.1099995,-0.03 4.8599995,-0.09 V 1.1700007 h -1.05 c -1.229999,0 -1.9799995,0.09 -2.2199993,0.24 -0.2400007,0.15 -0.3900003,0.51 -0.3900003,1.0500001 V 19.08 c 0,0.719999 -0.06,0.899999 -0.8400004,0.9 z"
             id="path35" />
        </g>
      </g>
    </g>
  </g>
  <g
     inkscape:label=""
     transform="translate(44.753988,25.539596)"
     id="g43">
    <g
       transform="matrix(0.352778,0,0,0.352778,-104.735,-3.52425)"
       id="g42">
      <g
         class="typst-text"
         transform="matrix(1,0,0,-1,290.138,19.98)"
         id="g41">
        <g
           id="g40">
          <path
             d="M 0,0 M 7.1099997,19.98 C 5.58,19.98 4.29,19.439999 3.1799999,18.359999 2.07,17.279999 1.5000001,16.020001 1.5000001,14.49 c 0,-1.02 0.75,-1.77 1.6799998,-1.77 C 4.08,12.72 4.83,13.5 4.83,14.4 c 0,0.99 -0.7199998,1.68 -1.6800001,1.68 -0.09,0 -0.1499999,0 -0.21,-0.03 0.5700002,1.470001 1.8900001,2.76 3.78,2.76 C 9.1799995,18.81 10.56,16.680001 10.56,14.1 10.56,12.090001 9.5400001,9.9299998 7.5000001,7.6499998 l -5.64,-6.3599997 C 1.47,0.84000011 1.5000001,0.87000015 1.5000001,1.13e-7 H 12.63 L 13.5,5.4000001 h -0.990001 c -0.24,-1.5300002 -0.45,-2.4 -0.629999,-2.67 -0.15,-0.1500001 -1.05,-0.21 -2.7000007,-0.21 H 4.17 l 2.9099998,2.85 C 9.1199998,7.2900002 11.7,9.3599999 12.57,10.95 c 0.6,1.05 0.899999,2.099999 0.899999,3.15 0,3.54 -2.759999,5.88 -6.3599993,5.88 z"
             id="path39" />
        </g>
      </g>
    </g>
  </g>
  <g
     inkscape:label=""
     transform="translate(57.643133,25.65894)"
     id="g47">
    <g
       transform="matrix(0.352778,0,0,0.352778,-104.772,-3.64067)"
       id="g46">
      <g
         class="typst-text"
         transform="matrix(1,0,0,-1,290.138,19.98)"
         id="g45">
        <g
           id="g44">
          <path
             d="m 0,0 m 9.09,10.59 c 1.98,0.75 3.839999,2.639999 3.839999,5.19 0,1.29 -0.629999,2.339999 -1.859999,3.15 -1.0800004,0.689999 -2.31,1.049999 -3.6900005,1.049999 -1.3499999,0 -2.52,-0.36 -3.5699997,-1.049999 -1.1700001,-0.780001 -1.77,-1.800001 -1.77,-3.090001 0,-0.99 0.6600001,-1.679999 1.6199999,-1.679999 0.96,0 1.6199999,0.689999 1.6199999,1.649999 0,0.99 -0.5699997,1.530001 -1.7099998,1.590001 0.78,1.049999 2.01,1.59 3.6899998,1.59 1.7999997,0 2.7000003,-1.049999 2.7000003,-3.180001 0,-1.26 -0.2400007,-2.309999 -0.6900005,-3.179999 -0.8099995,-1.44 -1.9199996,-1.71 -3.7799997,-1.71 -0.3599997,-0.06 -0.54,-0.21 -0.54,-0.48 0,-0.4500002 0.21,-0.4500002 0.8099999,-0.4500002 h 1.29 c 2.2500005,0 3.3900004,-1.5900002 3.3900004,-4.7999997 0,-2.5500002 -0.9299998,-4.77 -3.2100001,-4.77 -1.9500003,0 -3.39,0.66 -4.2599999,1.9799999 1.0499999,-0.03 1.8299996,0.75 1.8299996,1.7700002 0,1.02 -0.75,1.77 -1.7699996,1.77 -1.17,0 -1.77,-0.6000004 -1.77,-1.8299999 C 1.26,2.64 1.9199999,1.47 3.24,0.5400001 c 1.1699997,-0.80999994 2.55,-1.1999999 4.0799999,-1.1999999 1.7100001,0 3.1800001,0.57 4.4700001,1.68 1.29,1.1099999 1.92,2.49 1.92,4.17 0,2.8200002 -2.22,4.77 -4.62,5.3999998 z"
             id="path43" />
        </g>
      </g>
    </g>
  </g>
  <g
     inkscape:label=""
     transform="translate(71.367685,25.420253)"
     id="g51">
    <g
       transform="matrix(0.352778,0,0,0.352778,-104.847,-3.58246)"
       id="g50">
      <g
         class="typst-text"
         transform="matrix(1,0,0,-1,290.138,20.31)"
         id="g49">
        <g
           id="g48">
          <path
             d="m 0,0 m 10.59,20.31 c -0.27,0 -0.51,-0.15 -0.6900005,-0.42 L 0.84000047,5.9699999 V 4.89 H 8.6700005 V 2.43 c 0,-0.5399998 -0.1199999,-0.8999998 -0.33,-1.0499998 -0.21,-0.15 -0.7800002,-0.21 -1.7700005,-0.21 H 5.82 V 1.8e-7 c 0.8700004,0.06 2.25,0.09 4.1099998,0.09 1.8600002,0 3.2400002,-0.03 4.1100002,-0.09 V 1.1700002 h -0.75 c -0.989999,0 -1.56,0.06 -1.77,0.21 -0.21,0.15 -0.33,0.51 -0.33,1.0499998 v 2.46 h 2.94 V 6.0600001 H 11.19 V 19.8 c 0,0.300001 -0.21,0.51 -0.6,0.51 z M 8.8499993,16.590001 V 6.0599997 h -6.839999 z"
             id="path47" />
        </g>
      </g>
    </g>
  </g>
  <g
     inkscape:label=""
     transform="translate(86.166333,25.062221)"
     id="g55">
    <g
       transform="matrix(0.352778,0,0,0.352778,-104.73,-3.64067)"
       id="g54">
      <g
         class="typst-text"
         transform="matrix(1,0,0,-1,290.138,19.98)"
         id="g53">
        <g
           id="g52">
          <path
             d="m 0,0 m 3.54,9.45 c 0.1499999,0 0.3299999,0.1199999 0.48,0.3299999 C 4.9200001,11.13 6.15,11.79 7.71,11.79 c 1.0500002,0 1.8599997,-0.6 2.4,-1.8299998 0.33,-0.8100004 0.51,-2.0400004 0.51,-3.69 0,-1.8899999 -0.24,-3.21 -0.6900007,-3.99 -0.75,-1.23 -1.7699995,-1.85999998 -3.0599995,-1.85999998 -2.0100002,0 -3.6,1.43999998 -4.14,2.99999978 0.09,-0.03 0.1499998,0 0.27,0 0.8999998,0 1.6500001,0.6900003 1.6500001,1.5899999 0,0.9300003 -0.7500003,1.56 -1.6500001,1.56 -1.0500001,0 -1.5,-0.5699997 -1.5,-1.6799998 0,-3 2.4299998,-5.54999968 5.43,-5.54999968 1.8300004,0 3.3900002,0.65999997 4.6500002,1.97999988 1.26,1.3199999 1.889999,2.91 1.889999,4.74 0,1.7399998 -0.509999,3.2400002 -1.53,4.5299997 C 10.83,12 9.4499997,12.69 7.7699999,12.69 6.3599996,12.69 5.13,12.24 4.1399999,11.34 v 5.34 c 0.8099999,-0.239999 1.5900002,-0.36 2.4,-0.36 1.3799996,0 2.58,0.33 3.5999991,1.02 0.930001,0.57 1.560001,1.14 1.92,1.680001 C 12.24,19.26 12.33,19.439999 12.33,19.529999 12.33,19.83 12.179999,19.98 11.88,19.98 10.229999,19.35 8.8199996,19.02 7.6799997,19.02 c -1.3499999,0 -2.6399999,0.269999 -3.87,0.839999 -0.1500001,0.06 -0.2699999,0.09 -0.3900001,0.09 -0.2699999,0 -0.4199998,-0.269999 -0.4199998,-0.84 V 10.35 c 0,-0.6300004 0,-0.8999999 0.5400002,-0.9 z"
             id="path51" />
        </g>
      </g>
    </g>
  </g>
  <g
     inkscape:label=""
     transform="translate(30.912444,38.054254)"
     id="g59">
    <g
       transform="matrix(0.352778,0,0,0.352778,-104.772,-3.64067)"
       id="g58">
      <g
         class="typst-text"
         transform="matrix(1,0,0,-1,290.138,19.98)"
         id="g57">
        <g
           id="g56">
          <path
             d="m 0,0 m 11.49,15.12 c 0.99,0 1.47,0.51 1.47,1.53 0,2.159999 -1.62,3.33 -3.8399999,3.33 -2.4900002,0 -4.47,-1.17 -5.94,-3.539999 C 1.8900003,14.4 1.2600003,12.09 1.2600003,9.4799997 c 0,-3.8099995 0.6899999,-6.4799995 2.1,-8.07 1.2,-1.38 2.5800002,-2.07 4.17,-2.07 1.8299999,0 3.3299997,0.68999994 4.4999997,2.07 1.11,1.32 1.680001,2.9099998 1.680001,4.7400002 0,1.8299999 -0.54,3.3899999 -1.62,4.6800001 -1.140001,1.38 -2.6100009,2.099999 -4.3800003,2.099999 -1.56,0 -2.7600002,-0.87 -3.5700002,-2.549999 v 0.179999 c 0,3.390001 0.8400002,6.270001 2.6399999,7.59 C 7.5600006,18.719999 8.3700006,18.99 9.18,18.99 c 1.080001,0 1.860001,-0.3 2.370001,-0.930001 C 10.53,18.059999 10.02,17.49 10.02,16.59 c 0,-0.84 0.63,-1.47 1.47,-1.47 z M 10.32,10.2 c 0.33,-0.6899996 0.51,-2.04 0.51,-4.02 0,-1.9499998 -0.15,-3.24 -0.48,-3.8999999 -0.5999998,-1.23 -1.5300001,-1.86 -2.8200001,-1.86 -0.8699999,0 -1.5299997,0.29999998 -2.0099998,0.9 -0.3899999,0.48 -0.6600003,0.9000001 -0.7800002,1.23 -0.3599997,0.9300001 -0.54,2.34 -0.54,4.26 0,0.8399997 0.1199999,1.6500001 0.33,2.4299998 0.3900003,1.4100001 1.5,2.7299991 3.15,2.7299991 C 8.8499995,11.969999 9.7500001,11.37 10.32,10.2 Z"
             id="path55" />
        </g>
      </g>
    </g>
  </g>
  <g
     inkscape:label=""
     transform="translate(45.353059,38.054254)"
     id="g63">
    <g
       transform="matrix(0.352778,0,0,0.352778,-104.852,-3.69358)"
       id="g62">
      <g
         class="typst-text"
         transform="matrix(1,0,0,-1,289.943,20.28)"
         id="g61">
        <g
           id="g60">
          <path
             d="m 0,0 m 14.25,18.119999 c 0.21,0.27 0.299999,0.66 0.299999,1.200001 H 7.2899999 c -2.0700002,0 -3.2400002,0.119999 -3.45,0.389999 -0.09,0.09 -0.18,0.300001 -0.24,0.57 h -0.93 L 1.65,13.92 h 0.9899999 c 0.2999999,1.68 0.5399999,2.58 0.72,2.73 0.09,0.09 1.0200002,0.149999 2.7900002,0.149999 H 12.03 L 8.8499994,12.3 C 6.42,8.8499995 5.2199998,5.1300003 5.2199998,1.0800003 c 0,-1.16999998 0.48,-1.73999988 1.4700003,-1.73999988 0.9899998,0 1.4699998,0.57 1.4699998,1.73999988 v 1.53 C 8.1599999,7.1700007 8.8800001,10.47 10.29,12.48 Z"
             id="path59" />
        </g>
      </g>
    </g>
  </g>
  <g
     inkscape:label=""
     transform="translate(57.764828,37.815566)"
     id="g67">
    <g
       transform="matrix(0.352778,0,0,0.352778,-104.772,-3.64067)"
       id="g66">
      <g
         class="typst-text"
         transform="matrix(1,0,0,-1,290.138,19.98)"
         id="g65">
        <g
           id="g64">
          <path
             d="M 0,0 M 7.5,19.98 C 6.0299997,19.98 4.7399998,19.5 3.6599998,18.539999 2.5799999,17.58 2.0399999,16.38 2.0399999,14.91 c 0,-1.23 0.45,-2.34 1.3499999,-3.33 0.21,-0.239999 0.8699999,-0.75 1.98,-1.529999 -2.73,-1.4100012 -4.1099997,-3.2400006 -4.1099997,-5.4600009 0,-1.5899997 0.66,-2.8799996 1.95,-3.8699996 1.1999998,-0.92999995 2.6099997,-1.3799999 4.2599998,-1.3799999 1.6799998,0 3.1500001,0.53999996 4.3799991,1.6199999 1.230001,1.0799999 1.860001,2.4899998 1.860001,4.14 0,1.3800001 -0.48,2.6100001 -1.47,3.7199998 -0.36,0.3900003 -1.29,1.0799999 -2.7600004,2.0100007 2.3100004,1.229999 3.4499994,2.79 3.4499994,4.62 C 12.929999,18.180001 10.32,19.98 7.5,19.98 Z m 3.87,-4.53 c 0,-1.56 -0.93,-2.909999 -2.79,-4.02 L 5.0099998,13.77 C 4.08,14.37 3.6,15.15 3.6,16.08 c 0,1.8 1.9499998,2.91 3.87,2.91 2.0700002,0 3.9,-1.469999 3.9,-3.54 z M 7.5,0.4200003 c -2.46,0 -4.5299997,1.7700001 -4.5299997,4.1699996 0,2.0100002 1.1099999,3.6300006 3.3299997,4.86 l 3.5400004,-2.25 C 11.28,6.2700001 12,5.2199999 12,4.0200001 c 0,-2.1599998 -2.2499998,-3.6 -4.5,-3.5999998 z"
             id="path63" />
        </g>
      </g>
    </g>
  </g>
  <g
     inkscape:label=""
     transform="translate(72.351753,37.360937)"
     id="g11">
    <g
       transform="matrix(0.352778,0,0,0.352778,-104.772,-3.64067)"
       id="g10">
      <g
         class="typst-text"
         transform="matrix(1,0,0,-1,290.138,19.98)"
         id="g9">
        <g
           id="g8">
          <path
             d="M 0,0 M 3.48,4.2 C 2.49,4.2 2.01,3.69 2.01,2.67 c 0,-2.2499998 1.8299999,-3.33 4.2,-3.33 2.3999996,0 4.32,1.1999999 5.729999,3.63 C 13.11,4.98 13.71,7.2899997 13.71,9.8699996 c 0,3.8099994 -0.690001,6.5099994 -2.070001,8.0999994 -1.17,1.35 -2.5199991,2.01 -4.0499993,2.01 -1.77,0 -3.2399998,-0.629999 -4.41,-1.92 -1.2899998,-1.350001 -1.9199998,-2.970001 -1.9199998,-4.86 0,-1.83 0.54,-3.3900003 1.6199999,-4.6800003 1.1400001,-1.3799996 2.61,-2.0699997 4.38,-2.0699997 1.56,0 2.7600002,0.8400002 3.5700002,2.5200005 V 8.5799992 c 0,-3.27 -0.57,-5.49 -1.7399998,-6.69 C 8.1599999,0.89999916 7.1700001,0.41999916 6.1799999,0.41999916 c -1.1999998,0 -2.0699997,0.27 -2.6399999,0.84000004 0.9299998,0 1.4099998,0.54 1.4099998,1.47 0,0.8399999 -0.6300001,1.4699998 -1.4699998,1.4699998 z m 3.81,3.1799998 c -1.1700001,0 -2.04,0.6000004 -2.6399999,1.7999997 C 4.3199997,9.87 4.1399999,11.22 4.1399999,13.17 c 0,1.95 0.21,3.270001 0.5999999,4.020001 0.6600003,1.199999 1.6199999,1.799999 2.85,1.799999 1.23,0 2.1299996,-0.75 2.7000002,-2.25 0.33,-0.810001 0.54,-2.190001 0.54,-4.14 0,-2.6100001 -1.17,-5.2200004 -3.54,-5.2200002 z"
             id="path8" />
        </g>
      </g>
    </g>
  </g>
  <g
     inkscape:label=""
     transform="translate(86.331993,37.521629)"
     id="g17">
    <g
       transform="matrix(0.352778,0,0,0.352778,-104.788,-3.64067)"
       id="g16">
      <g
         class="typst-text"
         transform="matrix(1,0,0,-1,282.638,19.98)"
         id="g13">
        <g
           id="g12">
          <path
             d="M 0,0 M 8.07,19.98 C 6.84,18.72 5.0400003,18.090001 2.6700004,18.090001 V 16.92 c 1.5600002,0 2.8500001,0.24 3.84,0.72 V 2.4600008 c 0,-0.5400001 -0.1199999,-0.9000001 -0.3899999,-1.0500001 -0.2699999,-0.15 -1.02,-0.24 -2.22,-0.24 h -1.05 V 6.9e-7 c 0.75,0.06 2.37,0.09 4.86,0.09 2.4899995,0 4.1099995,-0.03 4.8599995,-0.09 V 1.1700007 h -1.05 c -1.229999,0 -1.9799995,0.09 -2.2199993,0.24 -0.2400007,0.15 -0.3900003,0.51 -0.3900003,1.0500001 V 19.08 c 0,0.719999 -0.06,0.899999 -0.8400004,0.9 z"
             id="path11" />
        </g>
      </g>
      <g
         class="typst-text"
         transform="matrix(1,0,0,-1,297.638,19.98)"
         id="g15">
        <g
           id="g14">
          <path
             d="m 0,0 m 7.47,-0.65999997 c 4.23,0 6.329999,3.41999997 6.329999,10.25999897 0,4.59 -0.959999,7.650001 -2.849999,9.150001 -1.0500002,0.81 -2.2200003,1.23 -3.4499998,1.23 -4.23,0 -6.33,-3.450001 -6.33,-10.3800005 C 1.1700002,4.08 2.6400001,-0.65999947 7.47,-0.65999997 Z M 10.83,15.72 c 0.21,-1.049999 0.3,-2.969999 0.3,-5.7599993 0,-2.7600002 -0.12,-4.8 -0.33,-6.12 -0.39,-2.4 -1.4999996,-3.59999997 -3.33,-3.59999997 -0.6900001,0 -1.3800001,0.26999998 -2.0099998,0.77999997 -0.81,0.69 -1.29,2.1 -1.5000002,4.2599998 -0.09,0.75 -0.1199999,2.31 -0.1199999,4.6800003 0,2.6100002 0.09,4.4399992 0.24,5.4299992 0.27,1.65 0.8099999,2.700001 1.6500001,3.15 0.6599999,0.36 1.23,0.540001 1.7399998,0.540001 1.9500003,0 3.03,-1.59 3.36,-3.360001 z"
             id="path13" />
        </g>
      </g>
    </g>
  </g>
  <g
     inkscape:label=""
     transform="translate(31.214494,50.457369)"
     id="g23">
    <g
       transform="matrix(0.352778,0,0,0.352778,-104.571,-3.52425)"
       id="g22">
      <g
         class="typst-text"
         transform="matrix(1,0,0,-1,282.638,19.98)"
         id="g19">
        <g
           id="g18">
          <path
             d="M 0,0 M 8.07,19.98 C 6.84,18.72 5.0400003,18.090001 2.6700004,18.090001 V 16.92 c 1.5600002,0 2.8500001,0.24 3.84,0.72 V 2.4600008 c 0,-0.5400001 -0.1199999,-0.9000001 -0.3899999,-1.0500001 -0.2699999,-0.15 -1.02,-0.24 -2.22,-0.24 h -1.05 V 6.9e-7 c 0.75,0.06 2.37,0.09 4.86,0.09 2.4899995,0 4.1099995,-0.03 4.8599995,-0.09 V 1.1700007 h -1.05 c -1.229999,0 -1.9799995,0.09 -2.2199993,0.24 -0.2400007,0.15 -0.3900003,0.51 -0.3900003,1.0500001 V 19.08 c 0,0.719999 -0.06,0.899999 -0.8400004,0.9 z"
             id="path17" />
        </g>
      </g>
      <g
         class="typst-text"
         transform="matrix(1,0,0,-1,297.638,19.98)"
         id="g21">
        <g
           id="g20">
          <path
             d="M 0,0 M 8.07,19.98 C 6.84,18.72 5.0400003,18.090001 2.6700004,18.090001 V 16.92 c 1.5600002,0 2.8500001,0.24 3.84,0.72 V 2.4600008 c 0,-0.5400001 -0.1199999,-0.9000001 -0.3899999,-1.0500001 -0.2699999,-0.15 -1.02,-0.24 -2.22,-0.24 h -1.05 V 6.9e-7 c 0.75,0.06 2.37,0.09 4.86,0.09 2.4899995,0 4.1099995,-0.03 4.8599995,-0.09 V 1.1700007 h -1.05 c -1.229999,0 -1.9799995,0.09 -2.2199993,0.24 -0.2400007,0.15 -0.3900003,0.51 -0.3900003,1.0500001 V 19.08 c 0,0.719999 -0.06,0.899999 -0.8400004,0.9 z"
             id="path19" />
        </g>
      </g>
    </g>
  </g>
  <g
     inkscape:label=""
     transform="translate(44.712657,50.377023)"
     id="g29">
    <g
       transform="matrix(0.352778,0,0,0.352778,-104.735,-3.52425)"
       id="g28">
      <g
         class="typst-text"
         transform="matrix(1,0,0,-1,282.638,19.98)"
         id="g25">
        <g
           id="g24">
          <path
             d="M 0,0 M 8.07,19.98 C 6.84,18.72 5.0400003,18.090001 2.6700004,18.090001 V 16.92 c 1.5600002,0 2.8500001,0.24 3.84,0.72 V 2.4600008 c 0,-0.5400001 -0.1199999,-0.9000001 -0.3899999,-1.0500001 -0.2699999,-0.15 -1.02,-0.24 -2.22,-0.24 h -1.05 V 6.9e-7 c 0.75,0.06 2.37,0.09 4.86,0.09 2.4899995,0 4.1099995,-0.03 4.8599995,-0.09 V 1.1700007 h -1.05 c -1.229999,0 -1.9799995,0.09 -2.2199993,0.24 -0.2400007,0.15 -0.3900003,0.51 -0.3900003,1.0500001 V 19.08 c 0,0.719999 -0.06,0.899999 -0.8400004,0.9 z"
             id="path23" />
        </g>
      </g>
      <g
         class="typst-text"
         transform="matrix(1,0,0,-1,297.638,19.98)"
         id="g27">
        <g
           id="g26">
          <path
             d="M 0,0 M 7.1099997,19.98 C 5.58,19.98 4.29,19.439999 3.1799999,18.359999 2.07,17.279999 1.5000001,16.020001 1.5000001,14.49 c 0,-1.02 0.75,-1.77 1.6799998,-1.77 C 4.08,12.72 4.83,13.5 4.83,14.4 c 0,0.99 -0.7199998,1.68 -1.6800001,1.68 -0.09,0 -0.1499999,0 -0.21,-0.03 0.5700002,1.470001 1.8900001,2.76 3.78,2.76 C 9.1799995,18.81 10.56,16.680001 10.56,14.1 10.56,12.090001 9.5400001,9.9299998 7.5000001,7.6499998 l -5.64,-6.3599997 C 1.47,0.84000011 1.5000001,0.87000015 1.5000001,1.13e-7 H 12.63 L 13.5,5.4000001 h -0.990001 c -0.24,-1.5300002 -0.45,-2.4 -0.629999,-2.67 -0.15,-0.1500001 -1.05,-0.21 -2.7000007,-0.21 H 4.17 l 2.9099998,2.85 C 9.1199998,7.2900002 11.7,9.3599999 12.57,10.95 c 0.6,1.05 0.899999,2.099999 0.899999,3.15 0,3.54 -2.759999,5.88 -6.3599993,5.88 z"
             id="path25" />
        </g>
      </g>
    </g>
  </g>
  <g
     inkscape:label=""
     transform="translate(57.648397,50.377023)"
     id="g35">
    <g
       transform="matrix(0.352778,0,0,0.352778,-104.772,-3.64067)"
       id="g34">
      <g
         class="typst-text"
         transform="matrix(1,0,0,-1,282.638,19.98)"
         id="g31">
        <g
           id="g30">
          <path
             d="M 0,0 M 8.07,19.98 C 6.84,18.72 5.0400003,18.090001 2.6700004,18.090001 V 16.92 c 1.5600002,0 2.8500001,0.24 3.84,0.72 V 2.4600008 c 0,-0.5400001 -0.1199999,-0.9000001 -0.3899999,-1.0500001 -0.2699999,-0.15 -1.02,-0.24 -2.22,-0.24 h -1.05 V 6.9e-7 c 0.75,0.06 2.37,0.09 4.86,0.09 2.4899995,0 4.1099995,-0.03 4.8599995,-0.09 V 1.1700007 h -1.05 c -1.229999,0 -1.9799995,0.09 -2.2199993,0.24 -0.2400007,0.15 -0.3900003,0.51 -0.3900003,1.0500001 V 19.08 c 0,0.719999 -0.06,0.899999 -0.8400004,0.9 z"
             id="path29" />
        </g>
      </g>
      <g
         class="typst-text"
         transform="matrix(1,0,0,-1,297.638,19.98)"
         id="g33">
        <g
           id="g32">
          <path
             d="m 0,0 m 9.09,10.59 c 1.98,0.75 3.839999,2.639999 3.839999,5.19 0,1.29 -0.629999,2.339999 -1.859999,3.15 -1.0800004,0.689999 -2.31,1.049999 -3.6900005,1.049999 -1.3499999,0 -2.52,-0.36 -3.5699997,-1.049999 -1.1700001,-0.780001 -1.77,-1.800001 -1.77,-3.090001 0,-0.99 0.6600001,-1.679999 1.6199999,-1.679999 0.96,0 1.6199999,0.689999 1.6199999,1.649999 0,0.99 -0.5699997,1.530001 -1.7099998,1.590001 0.78,1.049999 2.01,1.59 3.6899998,1.59 1.7999997,0 2.7000003,-1.049999 2.7000003,-3.180001 0,-1.26 -0.2400007,-2.309999 -0.6900005,-3.179999 -0.8099995,-1.44 -1.9199996,-1.71 -3.7799997,-1.71 -0.3599997,-0.06 -0.54,-0.21 -0.54,-0.48 0,-0.4500002 0.21,-0.4500002 0.8099999,-0.4500002 h 1.29 c 2.2500005,0 3.3900004,-1.5900002 3.3900004,-4.7999997 0,-2.5500002 -0.9299998,-4.77 -3.2100001,-4.77 -1.9500003,0 -3.39,0.66 -4.2599999,1.9799999 1.0499999,-0.03 1.8299996,0.75 1.8299996,1.7700002 0,1.02 -0.75,1.77 -1.7699996,1.77 -1.17,0 -1.77,-0.6000004 -1.77,-1.8299999 C 1.26,2.64 1.9199999,1.47 3.24,0.5400001 c 1.1699997,-0.80999994 2.55,-1.1999999 4.0799999,-1.1999999 1.7100001,0 3.1800001,0.57 4.4700001,1.68 1.29,1.1099999 1.92,2.49 1.92,4.17 0,2.8200002 -2.22,4.77 -4.62,5.3999998 z"
             id="path31" />
        </g>
      </g>
    </g>
  </g>
  <g
     inkscape:label=""
     transform="translate(85.849916,50.457369)"
     id="g73">
    <g
       transform="matrix(0.352778,0,0,0.352778,-104.73,-3.64067)"
       id="g72">
      <g
         class="typst-text"
         transform="matrix(1,0,0,-1,282.638,19.98)"
         id="g69">
        <g
           id="g68">
          <path
             d="M 0,0 M 8.07,19.98 C 6.84,18.72 5.0400003,18.090001 2.6700004,18.090001 V 16.92 c 1.5600002,0 2.8500001,0.24 3.84,0.72 V 2.4600008 c 0,-0.5400001 -0.1199999,-0.9000001 -0.3899999,-1.0500001 -0.2699999,-0.15 -1.02,-0.24 -2.22,-0.24 h -1.05 V 6.9e-7 c 0.75,0.06 2.37,0.09 4.86,0.09 2.4899995,0 4.1099995,-0.03 4.8599995,-0.09 V 1.1700007 h -1.05 c -1.229999,0 -1.9799995,0.09 -2.2199993,0.24 -0.2400007,0.15 -0.3900003,0.51 -0.3900003,1.0500001 V 19.08 c 0,0.719999 -0.06,0.899999 -0.8400004,0.9 z"
             id="path36" />
        </g>
      </g>
      <g
         class="typst-text"
         transform="matrix(1,0,0,-1,297.638,19.98)"
         id="g71">
        <g
           id="g70">
          <path
             d="m 0,0 m 3.54,9.45 c 0.1499999,0 0.3299999,0.1199999 0.48,0.3299999 C 4.9200001,11.13 6.15,11.79 7.71,11.79 c 1.0500002,0 1.8599997,-0.6 2.4,-1.8299998 0.33,-0.8100004 0.51,-2.0400004 0.51,-3.69 0,-1.8899999 -0.24,-3.21 -0.6900007,-3.99 -0.75,-1.23 -1.7699995,-1.85999998 -3.0599995,-1.85999998 -2.0100002,0 -3.6,1.43999998 -4.14,2.99999978 0.09,-0.03 0.1499998,0 0.27,0 0.8999998,0 1.6500001,0.6900003 1.6500001,1.5899999 0,0.9300003 -0.7500003,1.56 -1.6500001,1.56 -1.0500001,0 -1.5,-0.5699997 -1.5,-1.6799998 0,-3 2.4299998,-5.54999968 5.43,-5.54999968 1.8300004,0 3.3900002,0.65999997 4.6500002,1.97999988 1.26,1.3199999 1.889999,2.91 1.889999,4.74 0,1.7399998 -0.509999,3.2400002 -1.53,4.5299997 C 10.83,12 9.4499997,12.69 7.7699999,12.69 6.3599996,12.69 5.13,12.24 4.1399999,11.34 v 5.34 c 0.8099999,-0.239999 1.5900002,-0.36 2.4,-0.36 1.3799996,0 2.58,0.33 3.5999991,1.02 0.930001,0.57 1.560001,1.14 1.92,1.680001 C 12.24,19.26 12.33,19.439999 12.33,19.529999 12.33,19.83 12.179999,19.98 11.88,19.98 10.229999,19.35 8.8199996,19.02 7.6799997,19.02 c -1.3499999,0 -2.6399999,0.269999 -3.87,0.839999 -0.1500001,0.06 -0.2699999,0.09 -0.3900001,0.09 -0.2699999,0 -0.4199998,-0.269999 -0.4199998,-0.84 V 10.35 c 0,-0.6300004 0,-0.8999999 0.5400002,-0.9 z"
             id="path69" />
        </g>
      </g>
    </g>
  </g>
  <g
     inkscape:label=""
     transform="translate(30.973456,65.321417)"
     id="g79">
    <g
       transform="matrix(0.352778,0,0,0.352778,-104.772,-3.64067)"
       id="g78">
      <g
         class="typst-text"
         transform="matrix(1,0,0,-1,282.638,19.98)"
         id="g75">
        <g
           id="g74">
          <path
             d="M 0,0 M 8.07,19.98 C 6.84,18.72 5.0400003,18.090001 2.6700004,18.090001 V 16.92 c 1.5600002,0 2.8500001,0.24 3.84,0.72 V 2.4600008 c 0,-0.5400001 -0.1199999,-0.9000001 -0.3899999,-1.0500001 -0.2699999,-0.15 -1.02,-0.24 -2.22,-0.24 h -1.05 V 6.9e-7 c 0.75,0.06 2.37,0.09 4.86,0.09 2.4899995,0 4.1099995,-0.03 4.8599995,-0.09 V 1.1700007 h -1.05 c -1.229999,0 -1.9799995,0.09 -2.2199993,0.24 -0.2400007,0.15 -0.3900003,0.51 -0.3900003,1.0500001 V 19.08 c 0,0.719999 -0.06,0.899999 -0.8400004,0.9 z"
             id="path73" />
        </g>
      </g>
      <g
         class="typst-text"
         transform="matrix(1,0,0,-1,297.638,19.98)"
         id="g77">
        <g
           id="g76">
          <path
             d="m 0,0 m 11.49,15.12 c 0.99,0 1.47,0.51 1.47,1.53 0,2.159999 -1.62,3.33 -3.8399999,3.33 -2.4900002,0 -4.47,-1.17 -5.94,-3.539999 C 1.8900003,14.4 1.2600003,12.09 1.2600003,9.4799997 c 0,-3.8099995 0.6899999,-6.4799995 2.1,-8.07 1.2,-1.38 2.5800002,-2.07 4.17,-2.07 1.8299999,0 3.3299997,0.68999994 4.4999997,2.07 1.11,1.32 1.680001,2.9099998 1.680001,4.7400002 0,1.8299999 -0.54,3.3899999 -1.62,4.6800001 -1.140001,1.38 -2.6100009,2.099999 -4.3800003,2.099999 -1.56,0 -2.7600002,-0.87 -3.5700002,-2.549999 v 0.179999 c 0,3.390001 0.8400002,6.270001 2.6399999,7.59 C 7.5600006,18.719999 8.3700006,18.99 9.18,18.99 c 1.080001,0 1.860001,-0.3 2.370001,-0.930001 C 10.53,18.059999 10.02,17.49 10.02,16.59 c 0,-0.84 0.63,-1.47 1.47,-1.47 z M 10.32,10.2 c 0.33,-0.6899996 0.51,-2.04 0.51,-4.02 0,-1.9499998 -0.15,-3.24 -0.48,-3.8999999 -0.5999998,-1.23 -1.5300001,-1.86 -2.8200001,-1.86 -0.8699999,0 -1.5299997,0.29999998 -2.0099998,0.9 -0.3899999,0.48 -0.6600003,0.9000001 -0.7800002,1.23 -0.3599997,0.9300001 -0.54,2.34 -0.54,4.26 0,0.8399997 0.1199999,1.6500001 0.33,2.4299998 0.3900003,1.4100001 1.5,2.7299991 3.15,2.7299991 C 8.8499995,11.969999 9.7500001,11.37 10.32,10.2 Z"
             id="path75" />
        </g>
      </g>
    </g>
  </g>
  <g
     inkscape:label=""
     transform="translate(72.110744,50.618115)"
     id="g85">
    <g
       transform="matrix(0.352778,0,0,0.352778,-104.847,-3.58246)"
       id="g84">
      <g
         class="typst-text"
         transform="matrix(1,0,0,-1,282.638,20.31)"
         id="g81">
        <g
           id="g80">
          <path
             d="M 0,0 M 8.07,19.98 C 6.84,18.72 5.0400003,18.090001 2.6700004,18.090001 V 16.92 c 1.5600002,0 2.8500001,0.24 3.84,0.72 V 2.4600008 c 0,-0.5400001 -0.1199999,-0.9000001 -0.3899999,-1.0500001 -0.2699999,-0.15 -1.02,-0.24 -2.22,-0.24 h -1.05 V 6.9e-7 c 0.75,0.06 2.37,0.09 4.86,0.09 2.4899995,0 4.1099995,-0.03 4.8599995,-0.09 V 1.1700007 h -1.05 c -1.229999,0 -1.9799995,0.09 -2.2199993,0.24 -0.2400007,0.15 -0.3900003,0.51 -0.3900003,1.0500001 V 19.08 c 0,0.719999 -0.06,0.899999 -0.8400004,0.9 z"
             id="path79" />
        </g>
      </g>
      <g
         class="typst-text"
         transform="matrix(1,0,0,-1,297.638,20.31)"
         id="g83">
        <g
           id="g82">
          <path
             d="m 0,0 m 10.59,20.31 c -0.27,0 -0.51,-0.15 -0.6900005,-0.42 L 0.84000047,5.9699999 V 4.89 H 8.6700005 V 2.43 c 0,-0.5399998 -0.1199999,-0.8999998 -0.33,-1.0499998 -0.21,-0.15 -0.7800002,-0.21 -1.7700005,-0.21 H 5.82 V 1.8e-7 c 0.8700004,0.06 2.25,0.09 4.1099998,0.09 1.8600002,0 3.2400002,-0.03 4.1100002,-0.09 V 1.1700002 h -0.75 c -0.989999,0 -1.56,0.06 -1.77,0.21 -0.21,0.15 -0.33,0.51 -0.33,1.0499998 v 2.46 h 2.94 V 6.0600001 H 11.19 V 19.8 c 0,0.300001 -0.21,0.51 -0.6,0.51 z M 8.8499993,16.590001 V 6.0599997 h -6.839999 z"
             id="path81" />
        </g>
      </g>
    </g>
  </g>
  <g
     inkscape:label=""
     transform="translate(44.87338,64.678702)"
     id="g91">
    <g
       transform="matrix(0.352778,0,0,0.352778,-104.852,-3.69358)"
       id="g90">
      <g
         class="typst-text"
         transform="matrix(1,0,0,-1,282.443,20.28)"
         id="g87">
        <g
           id="g86">
          <path
             d="M 0,0 M 8.07,19.98 C 6.84,18.72 5.0400003,18.090001 2.6700004,18.090001 V 16.92 c 1.5600002,0 2.8500001,0.24 3.84,0.72 V 2.4600008 c 0,-0.5400001 -0.1199999,-0.9000001 -0.3899999,-1.0500001 -0.2699999,-0.15 -1.02,-0.24 -2.22,-0.24 h -1.05 V 6.9e-7 c 0.75,0.06 2.37,0.09 4.86,0.09 2.4899995,0 4.1099995,-0.03 4.8599995,-0.09 V 1.1700007 h -1.05 c -1.229999,0 -1.9799995,0.09 -2.2199993,0.24 -0.2400007,0.15 -0.3900003,0.51 -0.3900003,1.0500001 V 19.08 c 0,0.719999 -0.06,0.899999 -0.8400004,0.9 z"
             id="path85" />
        </g>
      </g>
      <g
         class="typst-text"
         transform="matrix(1,0,0,-1,297.443,20.28)"
         id="g89">
        <g
           id="g88">
          <path
             d="m 0,0 m 14.25,18.119999 c 0.21,0.27 0.299999,0.66 0.299999,1.200001 H 7.2899999 c -2.0700002,0 -3.2400002,0.119999 -3.45,0.389999 -0.09,0.09 -0.18,0.300001 -0.24,0.57 h -0.93 L 1.65,13.92 h 0.9899999 c 0.2999999,1.68 0.5399999,2.58 0.72,2.73 0.09,0.09 1.0200002,0.149999 2.7900002,0.149999 H 12.03 L 8.8499994,12.3 C 6.42,8.8499995 5.2199998,5.1300003 5.2199998,1.0800003 c 0,-1.16999998 0.48,-1.73999988 1.4700003,-1.73999988 0.9899998,0 1.4699998,0.57 1.4699998,1.73999988 v 1.53 C 8.1599999,7.1700007 8.8800001,10.47 10.29,12.48 Z"
             id="path87" />
        </g>
      </g>
    </g>
  </g>
  <g
     inkscape:label=""
     transform="translate(57.648427,64.518009)"
     id="g97">
    <g
       transform="matrix(0.352778,0,0,0.352778,-104.772,-3.64067)"
       id="g96">
      <g
         class="typst-text"
         transform="matrix(1,0,0,-1,282.638,19.98)"
         id="g93">
        <g
           id="g92">
          <path
             d="M 0,0 M 8.07,19.98 C 6.84,18.72 5.0400003,18.090001 2.6700004,18.090001 V 16.92 c 1.5600002,0 2.8500001,0.24 3.84,0.72 V 2.4600008 c 0,-0.5400001 -0.1199999,-0.9000001 -0.3899999,-1.0500001 -0.2699999,-0.15 -1.02,-0.24 -2.22,-0.24 h -1.05 V 6.9e-7 c 0.75,0.06 2.37,0.09 4.86,0.09 2.4899995,0 4.1099995,-0.03 4.8599995,-0.09 V 1.1700007 h -1.05 c -1.229999,0 -1.9799995,0.09 -2.2199993,0.24 -0.2400007,0.15 -0.3900003,0.51 -0.3900003,1.0500001 V 19.08 c 0,0.719999 -0.06,0.899999 -0.8400004,0.9 z"
             id="path91" />
        </g>
      </g>
      <g
         class="typst-text"
         transform="matrix(1,0,0,-1,297.638,19.98)"
         id="g95">
        <g
           id="g94">
          <path
             d="M 0,0 M 7.5,19.98 C 6.0299997,19.98 4.7399998,19.5 3.6599998,18.539999 2.5799999,17.58 2.0399999,16.38 2.0399999,14.91 c 0,-1.23 0.45,-2.34 1.3499999,-3.33 0.21,-0.239999 0.8699999,-0.75 1.98,-1.529999 -2.73,-1.4100012 -4.1099997,-3.2400006 -4.1099997,-5.4600009 0,-1.5899997 0.66,-2.8799996 1.95,-3.8699996 1.1999998,-0.92999995 2.6099997,-1.3799999 4.2599998,-1.3799999 1.6799998,0 3.1500001,0.53999996 4.3799991,1.6199999 1.230001,1.0799999 1.860001,2.4899998 1.860001,4.14 0,1.3800001 -0.48,2.6100001 -1.47,3.7199998 -0.36,0.3900003 -1.29,1.0799999 -2.7600004,2.0100007 2.3100004,1.229999 3.4499994,2.79 3.4499994,4.62 C 12.929999,18.180001 10.32,19.98 7.5,19.98 Z m 3.87,-4.53 c 0,-1.56 -0.93,-2.909999 -2.79,-4.02 L 5.0099998,13.77 C 4.08,14.37 3.6,15.15 3.6,16.08 c 0,1.8 1.9499998,2.91 3.87,2.91 2.0700002,0 3.9,-1.469999 3.9,-3.54 z M 7.5,0.4200003 c -2.46,0 -4.5299997,1.7700001 -4.5299997,4.1699996 0,2.0100002 1.1099999,3.6300006 3.3299997,4.86 l 3.5400004,-2.25 C 11.28,6.2700001 12,5.2199999 12,4.0200001 c 0,-2.1599998 -2.2499998,-3.6 -4.5,-3.5999998 z"
             id="path93" />
        </g>
      </g>
    </g>
  </g>
  <g
     inkscape:label=""
     transform="translate(71.709013,64.437663)"
     id="g103">
    <g
       transform="matrix(0.352778,0,0,0.352778,-104.772,-3.64067)"
       id="g102">
      <g
         class="typst-text"
         transform="matrix(1,0,0,-1,282.638,19.98)"
         id="g99">
        <g
           id="g98">
          <path
             d="M 0,0 M 8.07,19.98 C 6.84,18.72 5.0400003,18.090001 2.6700004,18.090001 V 16.92 c 1.5600002,0 2.8500001,0.24 3.84,0.72 V 2.4600008 c 0,-0.5400001 -0.1199999,-0.9000001 -0.3899999,-1.0500001 -0.2699999,-0.15 -1.02,-0.24 -2.22,-0.24 h -1.05 V 6.9e-7 c 0.75,0.06 2.37,0.09 4.86,0.09 2.4899995,0 4.1099995,-0.03 4.8599995,-0.09 V 1.1700007 h -1.05 c -1.229999,0 -1.9799995,0.09 -2.2199993,0.24 -0.2400007,0.15 -0.3900003,0.51 -0.3900003,1.0500001 V 19.08 c 0,0.719999 -0.06,0.899999 -0.8400004,0.9 z"
             id="path97" />
        </g>
      </g>
      <g
         class="typst-text"
         transform="matrix(1,0,0,-1,297.638,19.98)"
         id="g101">
        <g
           id="g100">
          <path
             d="M 0,0 M 3.48,4.2 C 2.49,4.2 2.01,3.69 2.01,2.67 c 0,-2.2499998 1.8299999,-3.33 4.2,-3.33 2.3999996,0 4.32,1.1999999 5.729999,3.63 C 13.11,4.98 13.71,7.2899997 13.71,9.8699996 c 0,3.8099994 -0.690001,6.5099994 -2.070001,8.0999994 -1.17,1.35 -2.5199991,2.01 -4.0499993,2.01 -1.77,0 -3.2399998,-0.629999 -4.41,-1.92 -1.2899998,-1.350001 -1.9199998,-2.970001 -1.9199998,-4.86 0,-1.83 0.54,-3.3900003 1.6199999,-4.6800003 1.1400001,-1.3799996 2.61,-2.0699997 4.38,-2.0699997 1.56,0 2.7600002,0.8400002 3.5700002,2.5200005 V 8.5799992 c 0,-3.27 -0.57,-5.49 -1.7399998,-6.69 C 8.1599999,0.89999916 7.1700001,0.41999916 6.1799999,0.41999916 c -1.1999998,0 -2.0699997,0.27 -2.6399999,0.84000004 0.9299998,0 1.4099998,0.54 1.4099998,1.47 0,0.8399999 -0.6300001,1.4699998 -1.4699998,1.4699998 z m 3.81,3.1799998 c -1.1700001,0 -2.04,0.6000004 -2.6399999,1.7999997 C 4.3199997,9.87 4.1399999,11.22 4.1399999,13.17 c 0,1.95 0.21,3.270001 0.5999999,4.020001 0.6600003,1.199999 1.6199999,1.799999 2.85,1.799999 1.23,0 2.1299996,-0.75 2.7000002,-2.25 0.33,-0.810001 0.54,-2.190001 0.54,-4.14 0,-2.6100001 -1.17,-5.2200004 -3.54,-5.2200002 z"
             id="path99" />
        </g>
      </g>
    </g>
  </g>
  <g
     inkscape:label=""
     transform="translate(86.010638,64.839394)"
     id="g109">
    <g
       transform="matrix(0.352778,0,0,0.352778,-104.788,-3.64067)"
       id="g108">
      <g
         class="typst-text"
         transform="matrix(1,0,0,-1,282.638,19.98)"
         id="g105">
        <g
           id="g104">
          <path
             d="M 0,0 M 7.1099997,19.98 C 5.58,19.98 4.29,19.439999 3.1799999,18.359999 2.07,17.279999 1.5000001,16.020001 1.5000001,14.49 c 0,-1.02 0.75,-1.77 1.6799998,-1.77 C 4.08,12.72 4.83,13.5 4.83,14.4 c 0,0.99 -0.7199998,1.68 -1.6800001,1.68 -0.09,0 -0.1499999,0 -0.21,-0.03 0.5700002,1.470001 1.8900001,2.76 3.78,2.76 C 9.1799995,18.81 10.56,16.680001 10.56,14.1 10.56,12.090001 9.5400001,9.9299998 7.5000001,7.6499998 l -5.64,-6.3599997 C 1.47,0.84000011 1.5000001,0.87000015 1.5000001,1.13e-7 H 12.63 L 13.5,5.4000001 h -0.990001 c -0.24,-1.5300002 -0.45,-2.4 -0.629999,-2.67 -0.15,-0.1500001 -1.05,-0.21 -2.7000007,-0.21 H 4.17 l 2.9099998,2.85 C 9.1199998,7.2900002 11.7,9.3599999 12.57,10.95 c 0.6,1.05 0.899999,2.099999 0.899999,3.15 0,3.54 -2.759999,5.88 -6.3599993,5.88 z"
             id="path103" />
        </g>
      </g>
      <g
         class="typst-text"
         transform="matrix(1,0,0,-1,297.638,19.98)"
         id="g107">
        <g
           id="g106">
          <path
             d="m 0,0 m 7.47,-0.65999997 c 4.23,0 6.329999,3.41999997 6.329999,10.25999897 0,4.59 -0.959999,7.650001 -2.849999,9.150001 -1.0500002,0.81 -2.2200003,1.23 -3.4499998,1.23 -4.23,0 -6.33,-3.450001 -6.33,-10.3800005 C 1.1700002,4.08 2.6400001,-0.65999947 7.47,-0.65999997 Z M 10.83,15.72 c 0.21,-1.049999 0.3,-2.969999 0.3,-5.7599993 0,-2.7600002 -0.12,-4.8 -0.33,-6.12 -0.39,-2.4 -1.4999996,-3.59999997 -3.33,-3.59999997 -0.6900001,0 -1.3800001,0.26999998 -2.0099998,0.77999997 -0.81,0.69 -1.29,2.1 -1.5000002,4.2599998 -0.09,0.75 -0.1199999,2.31 -0.1199999,4.6800003 0,2.6100002 0.09,4.4399992 0.24,5.4299992 0.27,1.65 0.8099999,2.700001 1.6500001,3.15 0.6599999,0.36 1.23,0.540001 1.7399998,0.540001 1.9500003,0 3.03,-1.59 3.36,-3.360001 z"
             id="path105" />
        </g>
      </g>
    </g>
  </g>
</svg>
